<?xml version="1.0" encoding="UTF-8" standalone="no"?>
<!-- Created with Inkscape (http://www.inkscape.org/) -->

<svg
   xmlns:dc="http://purl.org/dc/elements/1.1/"
   xmlns:cc="http://creativecommons.org/ns#"
   xmlns:rdf="http://www.w3.org/1999/02/22-rdf-syntax-ns#"
   xmlns:svg="http://www.w3.org/2000/svg"
   xmlns="http://www.w3.org/2000/svg"
   xmlns:sodipodi="http://sodipodi.sourceforge.net/DTD/sodipodi-0.dtd"
   xmlns:inkscape="http://www.inkscape.org/namespaces/inkscape"
   width="195.20619"
   height="59.001724"
   id="svg8817"
   version="1.1"
   inkscape:version="0.48.4 r9939"
   sodipodi:docname="New document 75">
  <defs
     id="defs8819" />
  <sodipodi:namedview
     id="base"
     pagecolor="#ffffff"
     bordercolor="#666666"
     borderopacity="1.0"
     inkscape:pageopacity="0.0"
     inkscape:pageshadow="2"
     inkscape:zoom="0.98994949"
     inkscape:cx="375"
     inkscape:cy="-218.49883"
     inkscape:document-units="px"
     inkscape:current-layer="layer1"
     showgrid="false"
     fit-margin-top="0"
     fit-margin-left="0"
     fit-margin-right="0"
     fit-margin-bottom="0"
     inkscape:window-width="1535"
     inkscape:window-height="876"
     inkscape:window-x="65"
     inkscape:window-y="24"
     inkscape:window-maximized="1" />
  <metadata
     id="metadata8822">
    <rdf:RDF>
      <cc:Work
         rdf:about="">
        <dc:format>image/svg+xml</dc:format>
        <dc:type
           rdf:resource="http://purl.org/dc/dcmitype/StillImage" />
        <dc:title></dc:title>
      </cc:Work>
    </rdf:RDF>
  </metadata>
  <g
     inkscape:label="Layer 1"
     inkscape:groupmode="layer"
     id="layer1"
     transform="translate(1.7881393e-7,-1.3604915)">
    <g
       id="g8882">
      <path
         d="m 14.692248,59.025879 -11.8464533,0 0,-54.2480902 11.8464533,0 0,54.2480902"
         style="font-size:73.9681015px;font-style:normal;font-weight:normal;line-height:125%;letter-spacing:0px;word-spacing:0px;fill:#000000;fill-opacity:1;stroke:none;font-family:Aharoni;-inkscape-font-specification:Aharoni"
         id="path8854"
         inkscape:connector-curvature="0" />
      <path
         d="m 35.351307,12.615229 c -1.6e-5,1.878141 -0.650126,3.467298 -1.95033,4.767476 -1.276156,1.276182 -2.853274,1.914253 -4.731358,1.914213 -1.854027,4e-5 -3.431144,-0.65007 -4.731359,-1.950331 -1.276146,-1.300177 -1.914216,-2.877295 -1.914213,-4.731358 -3e-6,-1.85397 0.638067,-3.4190483 1.914213,-4.6952405 1.300215,-1.3001682 2.877332,-1.9502778 4.731359,-1.9503308 1.854006,5.3e-5 3.431124,0.6501626 4.731358,1.9503308 1.300204,1.2761922 1.950314,2.8412705 1.95033,4.6952405 m -0.758462,46.41065 -11.846453,0 0,-33.516796 11.846453,0 0,33.516796"
         style="font-size:73.9681015px;font-style:normal;font-weight:normal;line-height:125%;letter-spacing:0px;word-spacing:0px;fill:#000000;fill-opacity:1;stroke:none;font-family:Aharoni;-inkscape-font-specification:Aharoni"
         id="path8856"
         inkscape:connector-curvature="0" />
      <path
         d="m 69.987737,47.721184 c -3.1e-5,3.563575 -1.276172,6.477029 -3.828427,8.740371 -2.865325,2.552285 -6.898413,3.828426 -12.099274,3.828427 -4.598939,-1e-6 -9.065433,-1.288181 -13.399495,-3.864544 l 4.297951,-8.379199 c 3.39501,2.239277 6.549246,3.358911 9.462716,3.358903 2.480032,8e-6 3.720056,-0.854766 3.720075,-2.564324 -1.9e-5,-0.890881 -0.433426,-1.577108 -1.30022,-2.058682 -0.553815,-0.313004 -1.805878,-0.686215 -3.756193,-1.119635 -2.191124,-0.481549 -3.623773,-0.85476 -4.297951,-1.119634 -2.407824,-0.939033 -4.033098,-2.407799 -4.875827,-4.406303 -0.45749,-1.083497 -0.686232,-2.383716 -0.686228,-3.900662 -4e-6,-2.937509 0.999238,-5.50183 2.997731,-7.692971 2.576353,-2.817111 6.549245,-4.225682 11.918688,-4.225717 3.732092,3.5e-5 7.355851,0.722379 10.871289,2.167034 l -4.009014,7.656855 c -2.215214,-1.131648 -4.33409,-1.697484 -6.356633,-1.697511 -2.383756,2.7e-5 -3.575623,0.818684 -3.575607,2.455973 -1.6e-5,0.746446 0.481546,1.348399 1.44469,1.805861 0.433388,0.216726 1.709529,0.541781 3.828427,0.975166 3.106057,0.650131 5.39348,1.685491 6.862275,3.106082 1.853988,1.7818 2.780996,4.093301 2.781027,6.93451"
         style="font-size:73.9681015px;font-style:normal;font-weight:normal;line-height:125%;letter-spacing:0px;word-spacing:0px;fill:#000000;fill-opacity:1;stroke:none;font-family:Aharoni;-inkscape-font-specification:Aharoni"
         id="path8858"
         inkscape:connector-curvature="0" />
      <path
         d="m 96.064385,35.260737 -6.753923,0 0,23.765142 -11.846454,0 0,-23.765142 -3.900662,0 0,-9.751654 3.900662,0 0,-10.076709 11.846454,0 0,10.076709 6.753923,0 0,9.751654"
         style="font-size:73.9681015px;font-style:normal;font-weight:normal;line-height:125%;letter-spacing:0px;word-spacing:0px;fill:#000000;fill-opacity:1;stroke:none;font-family:Aharoni;-inkscape-font-specification:Aharoni"
         id="path8860"
         inkscape:connector-curvature="0" />
      <path
         d="m 136.08228,44.434515 -24.92089,0 c -1e-5,5.032345 2.43188,7.54851 7.29568,7.548503 2.48003,7e-6 4.3822,-1.059431 5.70653,-3.178317 l 11.44916,0 c -0.91501,3.033855 -2.26338,5.381473 -4.04513,7.042861 -3.22651,3.00977 -7.54853,4.514653 -12.96609,4.514655 -6.88637,-2e-6 -12.06317,-2.094799 -15.53041,-6.2844 -2.60045,-3.130152 -3.900665,-6.946536 -3.900662,-11.449164 -3e-6,-5.345329 1.625272,-9.691432 4.875822,-13.038322 3.25055,-3.346831 7.83743,-5.020262 13.76067,-5.020296 7.29566,3.4e-5 12.50857,2.648629 15.63877,7.945792 1.75766,2.985715 2.63651,6.452966 2.63655,10.401764 l 0,1.516924 m -11.05187,-6.79004 c -0.84276,-3.708012 -3.09407,-5.562028 -6.75392,-5.562055 -2.02259,2.7e-5 -3.6599,0.589941 -4.91195,1.769745 -0.98722,0.939072 -1.61325,2.203174 -1.87809,3.79231 l 13.54396,0"
         style="font-size:73.9681015px;font-style:normal;font-weight:normal;line-height:125%;letter-spacing:0px;word-spacing:0px;fill:#000000;fill-opacity:1;stroke:none;font-family:Aharoni;-inkscape-font-specification:Aharoni"
         id="path8862"
         inkscape:connector-curvature="0" />
      <path
         d="m 178.19499,59.025879 -11.84646,0 0,-16.975102 c -2e-5,-2.961593 -0.33712,-4.923961 -1.01128,-5.887109 -0.98723,-1.420587 -2.46803,-2.130892 -4.44242,-2.130917 -1.80588,2.5e-5 -3.3228,0.614017 -4.55077,1.841979 -1.10761,1.107617 -1.66141,2.841243 -1.66139,5.200882 l 0,17.950267 -11.84646,0 0,-33.516796 11.84646,0 0,4.225717 c 1.37243,-1.589128 2.63654,-2.708761 3.79231,-3.358903 1.87807,-1.059406 4.22569,-1.589125 7.04286,-1.589159 3.61169,3.4e-5 6.54922,0.975199 8.8126,2.925496 2.57633,2.21522 3.86451,5.538002 3.86455,9.968358 l 0,21.345287"
         style="font-size:73.9681015px;font-style:normal;font-weight:normal;line-height:125%;letter-spacing:0px;word-spacing:0px;fill:#000000;fill-opacity:1;stroke:none;font-family:Aharoni;-inkscape-font-specification:Aharoni"
         id="path8864"
         inkscape:connector-curvature="0" />
      <path
         d="m 195.20619,55.269686 c -1e-5,1.203911 -0.42138,2.227231 -1.2641,3.069965 -0.84275,0.842736 -1.86607,1.264103 -3.06997,1.264104 -1.25207,-10e-7 -2.31151,-0.421368 -3.17831,-1.264104 -0.84274,-0.842734 -1.26411,-1.866054 -1.26411,-3.069965 0,-1.203903 0.42137,-2.215184 1.26411,-3.033848 0.8668,-0.842728 1.92624,-1.264095 3.17831,-1.264103 1.2039,8e-6 2.22722,0.421375 3.06997,1.264103 0.84272,0.818664 1.26409,1.829945 1.2641,3.033848"
         style="font-size:73.9681015px;font-style:normal;font-weight:normal;line-height:125%;letter-spacing:0px;word-spacing:0px;fill:#000000;fill-opacity:1;stroke:none;font-family:Aharoni;-inkscape-font-specification:Aharoni"
         id="path8866"
         inkscape:connector-curvature="0" />
      <path
         d="m 11.846454,55.608582 -11.84645417881393,0 0,-54.2480905 11.84645417881393,0 0,54.2480905"
         style="font-size:73.9681015px;font-style:normal;font-weight:normal;line-height:125%;letter-spacing:0px;word-spacing:0px;fill:#ffffff;fill-opacity:1;stroke:none;font-family:Aharoni;-inkscape-font-specification:Aharoni"
         id="path8839"
         inkscape:connector-curvature="0" />
      <path
         d="m 32.505512,9.1979319 c -1.6e-5,1.8781411 -0.650126,3.4672981 -1.95033,4.7674751 -1.276156,1.276183 -2.853274,1.914254 -4.731358,1.914214 -1.854027,4e-5 -3.431144,-0.65007 -4.731358,-1.950331 -1.276147,-1.300178 -1.914217,-2.877295 -1.914214,-4.7313581 -3e-6,-1.8539699 0.638067,-3.4190486 1.914214,-4.6952408 1.300214,-1.3001681 2.877331,-1.9502777 4.731358,-1.9503308 1.854006,5.31e-5 3.431124,0.6501627 4.731358,1.9503308 1.300204,1.2761922 1.950314,2.8412709 1.95033,4.6952408 m -0.758461,46.4106501 -11.846454,0 0,-33.516796 11.846454,0 0,33.516796"
         style="font-size:73.9681015px;font-style:normal;font-weight:normal;line-height:125%;letter-spacing:0px;word-spacing:0px;fill:#ffffff;fill-opacity:1;stroke:none;font-family:Aharoni;-inkscape-font-specification:Aharoni"
         id="path8841"
         inkscape:connector-curvature="0" />
      <path
         d="m 67.141942,44.303886 c -3.1e-5,3.563575 -1.276172,6.47703 -3.828427,8.740372 -2.865325,2.552284 -6.898413,3.828426 -12.099274,3.828427 -4.598939,-10e-7 -9.065433,-1.288182 -13.399495,-3.864545 l 4.297951,-8.379199 c 3.39501,2.239278 6.549246,3.358911 9.462716,3.358904 2.480032,7e-6 3.720056,-0.854767 3.720075,-2.564324 -1.9e-5,-0.890881 -0.433425,-1.577108 -1.30022,-2.058683 -0.553815,-0.313003 -1.805878,-0.686214 -3.756193,-1.119634 -2.191124,-0.481549 -3.623773,-0.854761 -4.297951,-1.119635 -2.407824,-0.939032 -4.033098,-2.407798 -4.875827,-4.406302 -0.45749,-1.083498 -0.686232,-2.383717 -0.686228,-3.900662 -4e-6,-2.93751 0.999238,-5.501831 2.997731,-7.692972 2.576353,-2.817111 6.549245,-4.225682 11.918688,-4.225716 3.732092,3.4e-5 7.355851,0.722378 10.871289,2.167034 l -4.009014,7.656854 c -2.215214,-1.131647 -4.33409,-1.697483 -6.356633,-1.69751 -2.383756,2.7e-5 -3.575623,0.818683 -3.575607,2.455972 -1.6e-5,0.746446 0.481547,1.3484 1.44469,1.805862 0.433388,0.216726 1.709529,0.54178 3.828427,0.975165 3.106057,0.650131 5.39348,1.685491 6.862275,3.106083 1.853988,1.7818 2.780996,4.093301 2.781027,6.934509"
         style="font-size:73.9681015px;font-style:normal;font-weight:normal;line-height:125%;letter-spacing:0px;word-spacing:0px;fill:#ffffff;fill-opacity:1;stroke:none;font-family:Aharoni;-inkscape-font-specification:Aharoni"
         id="path8843"
         inkscape:connector-curvature="0" />
      <path
         d="m 93.21859,31.84344 -6.753923,0 0,23.765142 -11.846454,0 0,-23.765142 -3.900662,0 0,-9.751654 3.900662,0 0,-10.07671 11.846454,0 0,10.07671 6.753923,0 0,9.751654"
         style="font-size:73.9681015px;font-style:normal;font-weight:normal;line-height:125%;letter-spacing:0px;word-spacing:0px;fill:#ffffff;fill-opacity:1;stroke:none;font-family:Aharoni;-inkscape-font-specification:Aharoni"
         id="path8845"
         inkscape:connector-curvature="0" />
      <path
         d="m 133.23649,41.017218 -24.92089,0 c -2e-5,5.032344 2.43187,7.548509 7.29568,7.548502 2.48002,7e-6 4.3822,-1.059431 5.70652,-3.178317 l 11.44916,0 c -0.915,3.033856 -2.26338,5.381474 -4.04513,7.042862 -3.2265,3.00977 -7.54853,4.514653 -12.96608,4.514654 -6.88637,-10e-7 -12.06317,-2.094799 -15.53042,-6.284399 -2.600441,-3.130152 -3.90066,-6.946537 -3.900657,-11.449164 -3e-6,-5.345329 1.625271,-9.691433 4.875827,-13.038323 3.25054,-3.346831 7.83742,-5.020261 13.76067,-5.020296 7.29565,3.5e-5 12.50857,2.64863 15.63876,7.945793 1.75767,2.985715 2.63652,6.452966 2.63656,10.401764 l 0,1.516924 m -11.05188,-6.790041 c -0.84276,-3.708011 -3.09406,-5.562027 -6.75392,-5.562054 -2.02258,2.7e-5 -3.6599,0.589941 -4.91194,1.769744 -0.98722,0.939073 -1.61325,2.203175 -1.8781,3.79231 l 13.54396,0"
         style="font-size:73.9681015px;font-style:normal;font-weight:normal;line-height:125%;letter-spacing:0px;word-spacing:0px;fill:#ffffff;fill-opacity:1;stroke:none;font-family:Aharoni;-inkscape-font-specification:Aharoni"
         id="path8847"
         inkscape:connector-curvature="0" />
      <path
         d="m 175.34919,55.608582 -11.84645,0 0,-16.975102 c -3e-5,-2.961593 -0.33712,-4.923961 -1.01128,-5.88711 -0.98723,-1.420587 -2.46804,-2.130892 -4.44242,-2.130917 -1.80589,2.5e-5 -3.32281,0.614018 -4.55078,1.84198 -1.10761,1.107617 -1.6614,2.841243 -1.66139,5.200882 l 0,17.950267 -11.84645,0 0,-33.516796 11.84645,0 0,4.225716 c 1.37244,-1.589127 2.63654,-2.70876 3.79231,-3.358903 1.87808,-1.059405 4.22569,-1.589124 7.04286,-1.589158 3.6117,3.4e-5 6.54923,0.975198 8.81261,2.925496 2.57632,2.21522 3.8645,5.538002 3.86454,9.968357 l 0,21.345288"
         style="font-size:73.9681015px;font-style:normal;font-weight:normal;line-height:125%;letter-spacing:0px;word-spacing:0px;fill:#ffffff;fill-opacity:1;stroke:none;font-family:Aharoni;-inkscape-font-specification:Aharoni"
         id="path8849"
         inkscape:connector-curvature="0" />
      <path
         d="m 192.3604,51.852389 c -2e-5,1.20391 -0.42138,2.227231 -1.26411,3.069965 -0.84274,0.842735 -1.86606,1.264103 -3.06996,1.264103 -1.25207,0 -2.31151,-0.421368 -3.17832,-1.264103 -0.84274,-0.842734 -1.26411,-1.866055 -1.2641,-3.069965 -1e-5,-1.203903 0.42136,-2.215185 1.2641,-3.033848 0.86681,-0.842728 1.92625,-1.264095 3.17832,-1.264103 1.2039,8e-6 2.22722,0.421375 3.06996,1.264103 0.84273,0.818663 1.26409,1.829945 1.26411,3.033848"
         style="font-size:73.9681015px;font-style:normal;font-weight:normal;line-height:125%;letter-spacing:0px;word-spacing:0px;fill:#ffffff;fill-opacity:1;stroke:none;font-family:Aharoni;-inkscape-font-specification:Aharoni"
         id="path8851"
         inkscape:connector-curvature="0" />
    </g>
  </g>
</svg>
