<svg viewBox="0 0 1150 460" xmlns="http://www.w3.org/2000/svg">
  <g fill="white">
  <path 
  d="M 0,0 V 457 H 100 V 342 L 210,457 H 350 L 200,305 342,175 H 205 L 100,277 V 0 H 0 z"/>
  <path d="m0,0 v457 h100 v-115 l110,115 h140 l-150,-152 l142,-130 h-137 l-105,102 v-277 h-100z"/>
  <path d="m333,50 v82 h116 l-136,201 h286 v-82 h-115 l136,-201 h-286 z"  transform = "rotate(12 333 50)"/>
  <path 
  d="m 696.43276,119.58365 c -7.79,0.2 -15.61,0.8 -23.421,1.75 -44.953,5.65 -76.622,21.682 -95.227,47.977 -14.426,20.446 -20.2,42.865 -17.11,67.458 1.59,12.699 4.99,23.394 9.96,31.984 9.16,15.845 24.294,26.365 45.44,31.694 5.92,1.51 18.315,3.22 37.165,4.94 16.783,1.58 27.571,3.34 32.537,5.38 7.76,3.12 12.105,8.39 13.043,15.847 1.8,14.312 -7.57,22.833 -28.33,25.442 -24.391,3.07 -52.107,-3 -82.885,-18.173 l -27.067,74.727 c 38.994,17.01 77.762,23.011 116.263,18.173 43.541,-5.47 75.887,-20.397 97.19,-44.778 18.987,-21.633 26.609,-47.365 22.86,-77.199 -2.99,-23.786 -13.178,-42.134 -30.573,-55.1 -13.791,-10.348 -34.039,-16.579 -60.726,-18.755 -18.195,-1.4 -29.242,-2.86 -33.098,-4.22 -8.54,-2.82 -13.1,-7.27 -13.885,-13.52 -1.72,-13.708 7.39,-21.917 27.348,-24.425 16.933,-2.13 35.241,0.4 54.976,7.56 l 25.525,-68.33 c -23.213,-6.3 -46.604,-9.07 -69.982,-8.43 z" />
  <path d="m830,48.5 v180 c0,30,8,54,24,72 c25,29,67,43,126,43 c30,0,55,-4,76,-11 c50,-17, 75,-53,75,-105 v-180 h-100 v160 c0,17.7,-4,31,-13,39 c-9,9,-22,13.5,-38,14 c-16,0,-29,-4 -38,-14 c-8,-8,-13,-21,-13,-39 v-160 h-100z" transform = "rotate(8 830 48.5)"/>
  </g>
</svg>
